<svg width="1024" height="1024" viewBox="0 0 1024 1024" fill="none" xmlns="http://www.w3.org/2000/svg">
  <!-- Red left wing -->
  <path d="M150 260 L410 260 Q470 260 470 320 L470 540 Q470 600 410 600 L230 600 Q150 600 150 540 Z M230 260 L410 260 Q470 260 470 200 L410 200 Q350 200 230 200 Q150 200 150 260 Z" fill="#EF4444"/>
  
  <!-- Black right wing -->  
  <path d="M554 260 L814 260 Q874 260 874 320 L874 540 Q874 600 814 600 L634 600 Q554 600 554 540 Z M634 260 L814 260 Q874 260 874 200 L814 200 Q754 200 634 200 Q554 200 554 260 Z" fill="#1F2937"/>
</svg>
